<svg xmlns="http://www.w3.org/2000/svg" xmlns:xlink="http://www.w3.org/1999/xlink" width="1080" zoomAndPan="magnify" viewBox="0 0 810 809.999993" height="1080" preserveAspectRatio="xMidYMid meet" version="1.0"><defs><clipPath id="e7a5e4afdb"><path d="M 97.707031 0 L 711.957031 0 L 711.957031 810 L 97.707031 810 Z M 97.707031 0 " clip-rule="nonzero"/></clipPath></defs><g clip-path="url(#e7a5e4afdb)"><path fill="#ffffff" d="M 693.800781 262.832031 L 449.824219 18.851562 C 438.234375 6.84375 422.453125 0.140625 405.414062 0 C 388.375 0.140625 372.59375 6.285156 360.585938 18.433594 L 116.1875 262.832031 C 104.316406 274.703125 97.753906 290.484375 97.753906 307.242188 C 97.753906 324 104.316406 339.78125 116.1875 351.652344 C 128.058594 363.523438 143.839844 370.085938 160.597656 370.085938 C 177.355469 370.085938 193.136719 363.523438 205.007812 351.652344 L 342.152344 214.511719 L 342.152344 747.15625 C 342.152344 781.789062 370.359375 810 404.996094 810 C 439.628906 810 467.839844 781.789062 467.839844 747.15625 L 467.839844 214.511719 L 604.980469 351.652344 C 616.851562 363.523438 632.632812 370.085938 649.390625 370.085938 C 666.152344 370.085938 681.929688 363.523438 693.800781 351.652344 C 705.671875 339.78125 712.238281 324 712.238281 307.242188 C 712.238281 290.484375 705.671875 274.703125 693.800781 262.832031 Z M 693.800781 262.832031 " fill-opacity="1" fill-rule="nonzero"/></g></svg>